<?xml version="1.0" encoding="UTF-8" standalone="no"?>
<!-- Created with Inkscape (http://www.inkscape.org/) -->

<svg
   width="128mm"
   height="128mm"
   viewBox="0 0 128 128"
   version="1.1"
   id="svg1"
   xml:space="preserve"
   xmlns="http://www.w3.org/2000/svg"
   xmlns:svg="http://www.w3.org/2000/svg"><defs
     id="defs1" /><path
     style="fill:#1c1c1d;stroke-width:0.136601"
     d="M 15.198575,86.972983 13.214225,68.268115 6.5044571,60.580369 6.8399795,15.224143 C 45.204265,1.3982678 83.568549,1.5795253 121.93283,15.542625 l 0.99698,43.48501 c -5.47344,5.827747 -9.36713,13.075776 -9.51761,27.430313 L 64.372215,122.92107 Z"
     id="path3167" /><path
     style="fill:#2c2d31;stroke-width:0.132796"
     d="m 63.505703,56.900344 48.056767,-35.576118 -0.0622,65.083477 C 98.641769,99.427467 64.225718,115.47031 64.225718,115.47031 Z"
     id="path3168" /><g
     id="layer2"
     transform="matrix(1.0973354,0,0,1.0188785,-20.24849,-10.923955)"><g
       id="g1048576"
       style="display:inline"><path
         style="fill:#dc9d2e;stroke:none"
         d="m 32.660777,123.494 c 0.23025,-15.41266 0.220188,-30.825807 0.220188,-46.239581 l 6.605654,-10.061392 62.374411,-14.599716 62.64371,14.819904 6.15916,9.400827 0.055,46.679958 7.85338,-6.60566 L 178.55398,75.7131 171.35505,61.77395 102.02014,44.990694 32.238748,61.731132 24.844086,75.7131 c 0,0 -0.193009,23.34953 0.183494,41.38932 l 7.633198,6.39158 M 101.57977,71.089142 c -15.427314,7.32611 -57.60343,31.408898 9.14816,76.201828 0.59091,-10.03752 -8.85901,-16.004 -15.974005,-21.81528 -17.498204,-14.28046 -16.561768,-36.127718 6.825845,-45.456685 0.28607,0.04859 13.91221,5.906437 17.30925,13.969738 1.67665,3.979784 1.68291,7.943257 1.07648,8.789197 -1.25182,1.74619 -5.02331,3.11818 -4.99094,4.18969 2.34813,2.82188 11.44641,9.72898 12.58745,9.92071 -0.50903,-6.24026 0.74484,-12.49029 0.20173,-18.716016 C 126.022,84.225138 113.65743,76.156281 101.57966,71.089142 m 62.20935,87.194638 0.32417,-75.965026 c 0.0187,-4.386259 -2.75844,-6.728773 -5.42515,-10.07751 l -1.0154,83.840646 -55.65264,46.30686 L 45.523306,155.42133 44.99118,72.85065 c -2.087128,0.803474 -5.483235,6.183407 -5.480246,6.605654 l 0.5627,79.488036 61.913266,51.66539 M 90.570344,102.79628 c 0,2.9563 -0.469151,6.30639 0.941916,9.02773 4.181075,8.0635 27.06957,16.18987 28.58168,31.04657 1.77513,12.49495 -6.12391,24.52056 -18.51417,28.05567 -7.52378,-3.62308 -19.38347,-11.61148 -18.202254,-21.45001 1.463332,-1.93432 3.757061,-3.30905 5.651509,-4.84415 -4.296851,-3.52163 -8.712727,-6.87374 -13.211309,-10.12867 -2.046829,20.67114 5.386141,37.76575 25.982244,45.50561 0.33127,0.0338 16.68061,-8.16705 21.92098,-16.00035 3.55413,-5.3127 4.50163,-11.5818 4.50163,-17.83527 0.21692,-21.23306 -22.87198,-32.08026 -37.652226,-43.37713"
         id="path1048576"
         transform="matrix(0.75853797,0,0,0.75853797,-0.35524606,-23.405601)" /></g></g></svg>
